<svg xmlns="http://www.w3.org/2000/svg" viewBox="0 0 39.28 46.6"><path d="M.71 46.6v-5.57l3.95-.91V21.28H0v-6.57h4.66v-3.39c0-3.64 1.07-6.43 3.21-8.39C10.01.98 13.01 0 16.86 0c.96 0 1.99.08 3.1.24 1.1.16 2 .33 2.71.53l-.77 6.99c-.51-.14-1.07-.25-1.68-.32q-.915-.12-1.89-.12c-1.43 0-2.5.34-3.2 1.03s-1.05 1.68-1.05 2.98v3.39h7.31v6.57h-7.31v18.84l5.69.91v5.57H.71Z" style="fill:#1ac593;stroke-width:0"/><path d="M21.95 46.6v-5.57l3.95-.91V21.28h-4.51v-6.57h13.94v25.41l3.95.91v5.57zM25.94.62h9.39v7.69h-9.39z" style="stroke-width:0;fill:#1a6aff"/></svg>